<svg xmlns="http://www.w3.org/2000/svg" xmlns:xlink="http://www.w3.org/1999/xlink" preserveAspectRatio="xMidYMid" width="15" height="11" viewBox="0 0 15 11">
  <defs>
    <style>

      .cls-2 {
        fill: #ffffff;
        filter: url(#drop-shadow-1);
      }
    </style>

    <filter id="drop-shadow-1" filterUnits="userSpaceOnUse">
      <feOffset in="SourceAlpha" dx="0.5" dy="0.866"/>
      <feGaussianBlur result="dropShadow" stdDeviation="1"/>
      <feFlood flood-color="#000000" flood-opacity="0.13"/>
      <feComposite operator="in" in2="dropShadow"/>
      <feComposite in="SourceGraphic" result="dropShadow"/>
    </filter>
  </defs>
  <path d="M9.453,5.196 C9.453,5.196 12.845,2.312 12.845,2.312 C12.845,2.312 12.845,9.611 12.845,9.611 C12.845,9.611 9.453,5.196 9.453,5.196 ZM1.782,1.751 C1.782,1.751 12.818,1.751 12.818,1.751 C12.818,1.751 7.300,6.442 7.300,6.442 C7.300,6.442 1.782,1.751 1.782,1.751 ZM1.740,9.631 C1.740,9.631 1.749,2.308 1.749,2.308 C1.749,2.308 5.146,5.196 5.146,5.196 C5.146,5.196 1.740,9.631 1.740,9.631 ZM7.298,7.026 C7.298,7.026 7.298,7.028 7.298,7.028 C7.298,7.028 7.300,7.027 7.300,7.027 C7.300,7.027 7.301,7.028 7.301,7.028 C7.301,7.028 7.301,7.026 7.301,7.026 C7.301,7.026 9.181,5.427 9.181,5.427 C9.181,5.427 12.433,9.660 12.433,9.660 C12.433,9.660 2.166,9.660 2.166,9.660 C2.166,9.660 5.418,5.427 5.418,5.427 C5.418,5.427 7.298,7.026 7.298,7.026 Z" id="path-1" class="cls-2" fill-rule="evenodd"/>
</svg>
