<svg width="14" height="15" viewBox="0 0 14 15" fill="none" xmlns="http://www.w3.org/2000/svg">
<path fill-rule="evenodd" clip-rule="evenodd" d="M9.41538 11.456C8.4984 12.1865 7.37116 12.6171 6.15249 12.6171C3.07655 12.6171 0.583008 9.87369 0.583008 6.48948C0.583008 3.10526 3.07655 0.361816 6.15249 0.361816C9.22843 0.361816 11.722 3.10526 11.722 6.48948C11.722 7.7954 11.3507 9.0059 10.7179 10.0002L13.5979 13.2364L12.2852 14.6807L9.41538 11.456ZM9.86555 6.4894C9.86555 8.74555 8.20319 10.5745 6.15256 10.5745C4.10194 10.5745 2.43958 8.74555 2.43958 6.4894C2.43958 4.23326 4.10194 2.4043 6.15256 2.4043C8.20319 2.4043 9.86555 4.23326 9.86555 6.4894Z" fill="#333333"/>
</svg>
