<svg xmlns="http://www.w3.org/2000/svg" xmlns:xlink="http://www.w3.org/1999/xlink" preserveAspectRatio="xMidYMid" width="30" height="30" viewBox="0 0 30 30">
  <defs>
    <style>

      .cls-3 {
        fill: #4b5053;
      }

      .cls-4 {
        fill: #ffffff;
        filter: url(#drop-shadow-1);
      }
    </style>

    <filter id="drop-shadow-1" filterUnits="userSpaceOnUse">
      <feOffset in="SourceAlpha" dx="0.5" dy="0.866"/>
      <feGaussianBlur result="dropShadow" stdDeviation="1"/>
      <feFlood flood-color="#000000" flood-opacity="0.13"/>
      <feComposite operator="in" in2="dropShadow"/>
      <feComposite in="SourceGraphic" result="dropShadow"/>
    </filter>
  </defs>
  <g id="twitterpng">
    <circle id="circle-1" class="cls-3" cx="15" cy="15" r="15"/>
    <path d="M23.814,16.041 C23.285,16.131 22.519,16.037 22.113,15.868 C22.957,15.798 23.528,15.415 23.748,14.894 C23.444,15.082 22.499,15.285 21.979,15.091 C21.953,14.968 21.925,14.852 21.896,14.747 C21.499,13.287 20.139,12.110 18.715,12.253 C18.829,12.206 18.946,12.163 19.064,12.123 C19.220,12.067 20.140,11.917 19.995,11.592 C19.873,11.306 18.748,11.807 18.537,11.874 C18.816,11.769 19.278,11.588 19.328,11.266 C18.900,11.325 18.479,11.528 18.155,11.822 C18.272,11.696 18.361,11.542 18.380,11.376 C17.237,12.107 16.570,13.579 16.030,15.008 C15.607,14.596 15.230,14.272 14.893,14.092 C13.948,13.585 12.817,13.055 11.042,12.396 C10.988,12.983 11.333,13.765 12.325,14.285 C12.110,14.256 11.717,14.321 11.403,14.395 C11.531,15.070 11.949,15.624 13.084,15.892 C12.565,15.926 12.297,16.045 12.055,16.299 C12.291,16.767 12.867,17.318 13.903,17.205 C12.750,17.702 13.433,18.623 14.370,18.486 C12.772,20.139 10.251,20.017 8.803,18.635 C12.582,23.790 20.799,21.683 22.022,16.717 C22.941,16.725 23.479,16.400 23.814,16.041 Z" id="path-1" class="cls-4" fill-rule="evenodd"/>
  </g>
</svg>
