<svg xmlns="http://www.w3.org/2000/svg" xmlns:xlink="http://www.w3.org/1999/xlink" preserveAspectRatio="xMidYMid" width="19" height="14" viewBox="0 0 19 14">
  <defs>
    <style>

      .cls-2 {
        fill: #ffffff;
        filter: url(#drop-shadow-1);
      }
    </style>

    <filter id="drop-shadow-1" filterUnits="userSpaceOnUse">
      <feOffset in="SourceAlpha" dx="0.5" dy="0.866"/>
      <feGaussianBlur result="dropShadow" stdDeviation="1"/>
      <feFlood flood-color="#000000" flood-opacity="0.13"/>
      <feComposite operator="in" in2="dropShadow"/>
      <feComposite in="SourceGraphic" result="dropShadow"/>
    </filter>
  </defs>
  <path d="M16.814,6.603 C16.285,6.693 15.519,6.600 15.113,6.431 C15.957,6.361 16.528,5.977 16.748,5.457 C16.444,5.644 15.499,5.848 14.979,5.654 C14.953,5.531 14.925,5.415 14.896,5.309 C14.499,3.849 13.139,2.673 11.715,2.815 C11.829,2.769 11.946,2.725 12.064,2.686 C12.220,2.630 13.140,2.479 12.995,2.155 C12.873,1.869 11.748,2.370 11.537,2.436 C11.816,2.331 12.278,2.151 12.328,1.829 C11.900,1.888 11.479,2.090 11.155,2.385 C11.272,2.259 11.361,2.105 11.380,1.939 C10.237,2.670 9.570,4.141 9.030,5.570 C8.607,5.159 8.230,4.835 7.893,4.654 C6.948,4.148 5.817,3.618 4.042,2.958 C3.988,3.546 4.333,4.328 5.325,4.847 C5.110,4.818 4.717,4.883 4.403,4.958 C4.531,5.632 4.949,6.187 6.084,6.455 C5.565,6.489 5.297,6.607 5.055,6.861 C5.291,7.330 5.867,7.881 6.903,7.768 C5.750,8.265 6.433,9.186 7.370,9.048 C5.772,10.702 3.251,10.579 1.803,9.197 C5.582,14.353 13.799,12.246 15.022,7.280 C15.941,7.287 16.479,6.962 16.814,6.603 Z" id="path-1" class="cls-2" fill-rule="evenodd"/>
</svg>
